<?xml version="1.0" encoding="utf-8"?>
<!-- created with bpmn-js / http://bpmn.io -->
<!DOCTYPE svg PUBLIC "-//W3C//DTD SVG 1.1//EN" "http://www.w3.org/Graphics/SVG/1.1/DTD/svg11.dtd">
<svg xmlns="http://www.w3.org/2000/svg" xmlns:xlink="http://www.w3.org/1999/xlink" width="790" height="842" viewBox="146 54 790 842" version="1.1"><defs><marker id="sequenceflow-end-white-black-c6ah3w0v1n98w96o4katrg2sl" viewBox="0 0 20 20" refX="11" refY="10" markerWidth="10" markerHeight="10" orient="auto"><path d="M 1 5 L 11 10 L 1 15 Z" style="fill: black; stroke-width: 1px; stroke-linecap: round; stroke-dasharray: 10000, 1; stroke: black;"/></marker></defs><g class="djs-group"><g class="djs-element djs-shape" data-element-id="Participant_1eyhwx3" style="display: block;" transform="matrix(1 0 0 1 152 60)"><g class="djs-visual"><rect x="0" y="0" width="778" height="830" rx="0" ry="0" style="stroke: black; stroke-width: 2px; fill: white; fill-opacity: 0.95;"/><polyline points="30,0 30,830 " style="fill: none; stroke: black; stroke-width: 2px;"/><text lineHeight="1.2" class="djs-label" style="font-family: Arial, sans-serif; font-size: 12px; font-weight: normal; fill: black;" transform="matrix(-1.83697e-16 -1 1 -1.83697e-16 0 830)"><tspan x="415" y="18.6"/></text></g><rect x="-6" y="-6" width="790" height="842" class="djs-outline" style="fill: none;"/><rect class="djs-hit djs-hit-click-stroke" x="0" y="0" width="778" height="830" style="fill: none; stroke-opacity: 0; stroke: white; stroke-width: 15px;"/><rect class="djs-hit djs-hit-all" x="0" y="0" width="30" height="830" style="fill: none; stroke-opacity: 0; stroke: white; stroke-width: 15px;"/></g><g class="djs-children"><g class="djs-group"><g class="djs-element djs-shape" data-element-id="Lane_0fhwrh5" style="display: block;" transform="matrix(1 0 0 1 182 60)"><g class="djs-visual"><rect x="0" y="0" width="748" height="125" rx="0" ry="0" style="stroke: black; stroke-width: 2px; fill: white; fill-opacity: 0.35;"/><text lineHeight="1.2" class="djs-label" style="font-family: Arial, sans-serif; font-size: 12px; font-weight: normal; fill: black;" transform="matrix(-1.83697e-16 -1 1 -1.83697e-16 0 125)"><tspan x="20.9765625" y="11.4">Человек перед </tspan><tspan x="26.890625" y="25.799999999999997">телевизором</tspan></text></g><rect x="-6" y="-6" width="760" height="137" class="djs-outline" style="fill: none;"/><rect class="djs-hit djs-hit-click-stroke" x="0" y="0" width="748" height="125" style="fill: none; stroke-opacity: 0; stroke: white; stroke-width: 15px;"/><rect class="djs-hit djs-hit-all" x="0" y="0" width="30" height="125" style="fill: none; stroke-opacity: 0; stroke: white; stroke-width: 15px;"/></g></g><g class="djs-group"><g class="djs-element djs-shape" data-element-id="Lane_1d89jao" style="display: block;" transform="matrix(1 0 0 1 182 185)"><g class="djs-visual"><rect x="0" y="0" width="748" height="705" rx="0" ry="0" style="stroke: black; stroke-width: 2px; fill: white; fill-opacity: 0.35;"/><text lineHeight="1.2" class="djs-label" style="font-family: Arial, sans-serif; font-size: 12px; font-weight: normal; fill: black;" transform="matrix(-1.83697e-16 -1 1 -1.83697e-16 0 705)"><tspan x="323.03125" y="18.6">Телевизор</tspan></text></g><rect x="-6" y="-6" width="760" height="717" class="djs-outline" style="fill: none;"/><rect class="djs-hit djs-hit-click-stroke" x="0" y="0" width="748" height="705" style="fill: none; stroke-opacity: 0; stroke: white; stroke-width: 15px;"/><rect class="djs-hit djs-hit-all" x="0" y="0" width="30" height="705" style="fill: none; stroke-opacity: 0; stroke: white; stroke-width: 15px;"/></g></g><g class="djs-group"><g class="djs-element djs-connection" data-element-id="Flow_18orofk" style="display: block;"><g class="djs-visual"><path d="m  280,148L280,200 " style="fill: none; stroke-width: 2px; stroke: black; stroke-linejoin: round; marker-end: url('#sequenceflow-end-white-black-c6ah3w0v1n98w96o4katrg2sl');"/></g><polyline points="280,148 280,200 " class="djs-hit djs-hit-stroke" style="fill: none; stroke-opacity: 0; stroke: white; stroke-width: 15px;"/><rect x="274" y="142" width="12" height="64" class="djs-outline" style="fill: none;"/></g></g><g class="djs-group"><g class="djs-element djs-connection" data-element-id="Flow_0v9k589" style="display: block;"><g class="djs-visual"><path d="m  330,240L380,240 " style="fill: none; stroke-width: 2px; stroke: black; stroke-linejoin: round; marker-end: url('#sequenceflow-end-white-black-c6ah3w0v1n98w96o4katrg2sl');"/></g><polyline points="330,240 380,240 " class="djs-hit djs-hit-stroke" style="fill: none; stroke-opacity: 0; stroke: white; stroke-width: 15px;"/><rect x="324" y="234" width="62" height="12" class="djs-outline" style="fill: none;"/></g></g><g class="djs-group"><g class="djs-element djs-connection" data-element-id="Flow_19k806l" style="display: block;"><g class="djs-visual"><path d="m  330,240L360,240 L360,350 L380,350 " style="fill: none; stroke-width: 2px; stroke: black; stroke-linejoin: round; marker-end: url('#sequenceflow-end-white-black-c6ah3w0v1n98w96o4katrg2sl');"/></g><polyline points="330,240 360,240 360,350 380,350 " class="djs-hit djs-hit-stroke" style="fill: none; stroke-opacity: 0; stroke: white; stroke-width: 15px;"/><rect x="324" y="234" width="62" height="122" class="djs-outline" style="fill: none;"/></g></g><g class="djs-group"><g class="djs-element djs-connection" data-element-id="Flow_0zerejf" style="display: block;"><g class="djs-visual"><path d="m  330,240L360,240 L360,460 L380,460 " style="fill: none; stroke-width: 2px; stroke: black; stroke-linejoin: round; marker-end: url('#sequenceflow-end-white-black-c6ah3w0v1n98w96o4katrg2sl');"/></g><polyline points="330,240 360,240 360,460 380,460 " class="djs-hit djs-hit-stroke" style="fill: none; stroke-opacity: 0; stroke: white; stroke-width: 15px;"/><rect x="324" y="234" width="62" height="232" class="djs-outline" style="fill: none;"/></g></g><g class="djs-group"><g class="djs-element djs-connection" data-element-id="Flow_18toscb" style="display: block;"><g class="djs-visual"><path d="m  330,240L360,240 L360,570 L380,570 " style="fill: none; stroke-width: 2px; stroke: black; stroke-linejoin: round; marker-end: url('#sequenceflow-end-white-black-c6ah3w0v1n98w96o4katrg2sl');"/></g><polyline points="330,240 360,240 360,570 380,570 " class="djs-hit djs-hit-stroke" style="fill: none; stroke-opacity: 0; stroke: white; stroke-width: 15px;"/><rect x="324" y="234" width="62" height="342" class="djs-outline" style="fill: none;"/></g></g><g class="djs-group"><g class="djs-element djs-connection" data-element-id="Flow_0yjy16c" style="display: block;"><g class="djs-visual"><path d="m  480,570L530,570 " style="fill: none; stroke-width: 2px; stroke: black; stroke-linejoin: round; marker-end: url('#sequenceflow-end-white-black-c6ah3w0v1n98w96o4katrg2sl');"/></g><polyline points="480,570 530,570 " class="djs-hit djs-hit-stroke" style="fill: none; stroke-opacity: 0; stroke: white; stroke-width: 15px;"/><rect x="474" y="564" width="62" height="12" class="djs-outline" style="fill: none;"/></g></g><g class="djs-group"><g class="djs-element djs-connection" data-element-id="Flow_1sxhen9" style="display: block;"><g class="djs-visual"><path d="m  480,570L510,570 L510,680 L530,680 " style="fill: none; stroke-width: 2px; stroke: black; stroke-linejoin: round; marker-end: url('#sequenceflow-end-white-black-c6ah3w0v1n98w96o4katrg2sl');"/></g><polyline points="480,570 510,570 510,680 530,680 " class="djs-hit djs-hit-stroke" style="fill: none; stroke-opacity: 0; stroke: white; stroke-width: 15px;"/><rect x="474" y="564" width="62" height="122" class="djs-outline" style="fill: none;"/></g></g><g class="djs-group"><g class="djs-element djs-connection" data-element-id="Flow_0y5a8a3" style="display: block;"><g class="djs-visual"><path d="m  480,570L510,570 L510,790 L530,790 " style="fill: none; stroke-width: 2px; stroke: black; stroke-linejoin: round; marker-end: url('#sequenceflow-end-white-black-c6ah3w0v1n98w96o4katrg2sl');"/></g><polyline points="480,570 510,570 510,790 530,790 " class="djs-hit djs-hit-stroke" style="fill: none; stroke-opacity: 0; stroke: white; stroke-width: 15px;"/><rect x="474" y="564" width="62" height="232" class="djs-outline" style="fill: none;"/></g></g><g class="djs-group"><g class="djs-element djs-connection" data-element-id="Flow_1ojlwow" style="display: block;"><g class="djs-visual"><path d="m  480,240L575,240 L575,270 L690,270 " style="fill: none; stroke-width: 2px; stroke: black; stroke-linejoin: round; marker-end: url('#sequenceflow-end-white-black-c6ah3w0v1n98w96o4katrg2sl');"/></g><polyline points="480,240 575,240 575,270 690,270 " class="djs-hit djs-hit-stroke" style="fill: none; stroke-opacity: 0; stroke: white; stroke-width: 15px;"/><rect x="474" y="234" width="222" height="42" class="djs-outline" style="fill: none;"/></g></g><g class="djs-group"><g class="djs-element djs-connection" data-element-id="Flow_1m1ifaj" style="display: block;"><g class="djs-visual"><path d="m  480,350L505,350 L505,300 L690,300 " style="fill: none; stroke-width: 2px; stroke: black; stroke-linejoin: round; marker-end: url('#sequenceflow-end-white-black-c6ah3w0v1n98w96o4katrg2sl');"/></g><polyline points="480,350 505,350 505,300 690,300 " class="djs-hit djs-hit-stroke" style="fill: none; stroke-opacity: 0; stroke: white; stroke-width: 15px;"/><rect x="474" y="294" width="222" height="62" class="djs-outline" style="fill: none;"/></g></g><g class="djs-group"><g class="djs-element djs-connection" data-element-id="Flow_1acgo11" style="display: block;"><g class="djs-visual"><path d="m  480,460L585,460 L585,300 L690,300 " style="fill: none; stroke-width: 2px; stroke: black; stroke-linejoin: round; marker-end: url('#sequenceflow-end-white-black-c6ah3w0v1n98w96o4katrg2sl');"/></g><polyline points="480,460 585,460 585,300 690,300 " class="djs-hit djs-hit-stroke" style="fill: none; stroke-opacity: 0; stroke: white; stroke-width: 15px;"/><rect x="474" y="294" width="222" height="172" class="djs-outline" style="fill: none;"/></g></g><g class="djs-group"><g class="djs-element djs-connection" data-element-id="Flow_1kiv3jv" style="display: block;"><g class="djs-visual"><path d="m  630,570L660,570 L660,290 L690,290 " style="fill: none; stroke-width: 2px; stroke: black; stroke-linejoin: round; marker-end: url('#sequenceflow-end-white-black-c6ah3w0v1n98w96o4katrg2sl');"/></g><polyline points="630,570 660,570 660,290 690,290 " class="djs-hit djs-hit-stroke" style="fill: none; stroke-opacity: 0; stroke: white; stroke-width: 15px;"/><rect x="624" y="284" width="72" height="292" class="djs-outline" style="fill: none;"/></g></g><g class="djs-group"><g class="djs-element djs-connection" data-element-id="Flow_0kxdw1z" style="display: block;"><g class="djs-visual"><path d="m  630,680L660,680 L660,300 L690,300 " style="fill: none; stroke-width: 2px; stroke: black; stroke-linejoin: round; marker-end: url('#sequenceflow-end-white-black-c6ah3w0v1n98w96o4katrg2sl');"/></g><polyline points="630,680 660,680 660,300 690,300 " class="djs-hit djs-hit-stroke" style="fill: none; stroke-opacity: 0; stroke: white; stroke-width: 15px;"/><rect x="624" y="294" width="72" height="392" class="djs-outline" style="fill: none;"/></g></g><g class="djs-group"><g class="djs-element djs-connection" data-element-id="Flow_1gmzw8z" style="display: block;"><g class="djs-visual"><path d="m  630,790L660,790 L660,300 L690,300 " style="fill: none; stroke-width: 2px; stroke: black; stroke-linejoin: round; marker-end: url('#sequenceflow-end-white-black-c6ah3w0v1n98w96o4katrg2sl');"/></g><polyline points="630,790 660,790 660,300 690,300 " class="djs-hit djs-hit-stroke" style="fill: none; stroke-opacity: 0; stroke: white; stroke-width: 15px;"/><rect x="624" y="294" width="72" height="502" class="djs-outline" style="fill: none;"/></g></g><g class="djs-group"><g class="djs-element djs-connection" data-element-id="Flow_1qaug2a" style="display: block;"><g class="djs-visual"><path d="m  740,230L740,138 " style="fill: none; stroke-width: 2px; stroke: black; stroke-linejoin: round; marker-end: url('#sequenceflow-end-white-black-c6ah3w0v1n98w96o4katrg2sl');"/></g><polyline points="740,230 740,138 " class="djs-hit djs-hit-stroke" style="fill: none; stroke-opacity: 0; stroke: white; stroke-width: 15px;"/><rect x="734" y="132" width="12" height="104" class="djs-outline" style="fill: none;"/></g></g><g class="djs-group"><g class="djs-element djs-shape" data-element-id="StartEvent_1y45yut" style="display: block;" transform="matrix(1 0 0 1 262 112)"><g class="djs-visual"><circle cx="18" cy="18" r="18" style="stroke: black; stroke-width: 2px; fill: white; fill-opacity: 0.95;"/></g><rect class="djs-hit djs-hit-all" x="0" y="0" width="36" height="36" style="fill: none; stroke-opacity: 0; stroke: white; stroke-width: 15px;"/><rect x="-6" y="-6" width="48" height="48" class="djs-outline" style="fill: none;"/></g></g><g class="djs-group"><g class="djs-element djs-shape" data-element-id="Activity_15jt624" style="display: block;" transform="matrix(1 0 0 1 230 200)"><g class="djs-visual"><rect x="0" y="0" width="100" height="80" rx="10" ry="10" style="stroke: black; stroke-width: 2px; fill: white; fill-opacity: 0.95;"/><text lineHeight="1.2" class="djs-label" style="font-family: Arial, sans-serif; font-size: 12px; font-weight: normal; fill: black;"><tspan x="31.3046875" y="29.200000000000003">Выбор </tspan><tspan x="13.125" y="43.6">дальнейшего </tspan><tspan x="24.6796875" y="58">действия</tspan></text></g><rect class="djs-hit djs-hit-all" x="0" y="0" width="100" height="80" style="fill: none; stroke-opacity: 0; stroke: white; stroke-width: 15px;"/><rect x="-6" y="-6" width="112" height="92" class="djs-outline" style="fill: none;"/></g></g><g class="djs-group"><g class="djs-element djs-shape" data-element-id="Activity_0etm3za" style="display: block;" transform="matrix(1 0 0 1 380 200)"><g class="djs-visual"><rect x="0" y="0" width="100" height="80" rx="10" ry="10" style="stroke: black; stroke-width: 2px; fill: white; fill-opacity: 0.95;"/><text lineHeight="1.2" class="djs-label" style="font-family: Arial, sans-serif; font-size: 12px; font-weight: normal; fill: black;"><tspan x="19.46875" y="29.200000000000003">Начальная </tspan><tspan x="21.21875" y="43.6">настройка </tspan><tspan x="18.25" y="58">телевизора</tspan></text></g><rect class="djs-hit djs-hit-all" x="0" y="0" width="100" height="80" style="fill: none; stroke-opacity: 0; stroke: white; stroke-width: 15px;"/><rect x="-6" y="-6" width="112" height="92" class="djs-outline" style="fill: none;"/></g></g><g class="djs-group"><g class="djs-element djs-shape" data-element-id="Activity_0053a65" style="display: block;" transform="matrix(1 0 0 1 380 310)"><g class="djs-visual"><rect x="0" y="0" width="100" height="80" rx="10" ry="10" style="stroke: black; stroke-width: 2px; fill: white; fill-opacity: 0.95;"/><text lineHeight="1.2" class="djs-label" style="font-family: Arial, sans-serif; font-size: 12px; font-weight: normal; fill: black;"><tspan x="8.3828125" y="36.4">Переключение </tspan><tspan x="27.1484375" y="50.8">каналов</tspan></text></g><rect class="djs-hit djs-hit-all" x="0" y="0" width="100" height="80" style="fill: none; stroke-opacity: 0; stroke: white; stroke-width: 15px;"/><rect x="-6" y="-6" width="112" height="92" class="djs-outline" style="fill: none;"/></g></g><g class="djs-group"><g class="djs-element djs-shape" data-element-id="Activity_0rosy6e" style="display: block;" transform="matrix(1 0 0 1 380 420)"><g class="djs-visual"><rect x="0" y="0" width="100" height="80" rx="10" ry="10" style="stroke: black; stroke-width: 2px; fill: white; fill-opacity: 0.95;"/><text lineHeight="1.2" class="djs-label" style="font-family: Arial, sans-serif; font-size: 12px; font-weight: normal; fill: black;"><tspan x="18.5546875" y="36.4">Изменение </tspan><tspan x="21.8828125" y="50.8">громкости</tspan></text></g><rect class="djs-hit djs-hit-all" x="0" y="0" width="100" height="80" style="fill: none; stroke-opacity: 0; stroke: white; stroke-width: 15px;"/><rect x="-6" y="-6" width="112" height="92" class="djs-outline" style="fill: none;"/></g></g><g class="djs-group"><g class="djs-element djs-shape" data-element-id="Activity_03lj8ft" style="display: block;" transform="matrix(1 0 0 1 380 530)"><g class="djs-visual"><rect x="0" y="0" width="100" height="80" rx="10" ry="10" style="stroke: black; stroke-width: 2px; fill: white; fill-opacity: 0.95;"/><text lineHeight="1.2" class="djs-label" style="font-family: Arial, sans-serif; font-size: 12px; font-weight: normal; fill: black;"><tspan x="10.25" y="43.599999999999994">Выход в меню</tspan></text></g><rect class="djs-hit djs-hit-all" x="0" y="0" width="100" height="80" style="fill: none; stroke-opacity: 0; stroke: white; stroke-width: 15px;"/><rect x="-6" y="-6" width="112" height="92" class="djs-outline" style="fill: none;"/></g></g><g class="djs-group"><g class="djs-element djs-shape" data-element-id="Activity_1phex5h" style="display: block;" transform="matrix(1 0 0 1 530 530)"><g class="djs-visual"><rect x="0" y="0" width="100" height="80" rx="10" ry="10" style="stroke: black; stroke-width: 2px; fill: white; fill-opacity: 0.95;"/><text lineHeight="1.2" class="djs-label" style="font-family: Arial, sans-serif; font-size: 12px; font-weight: normal; fill: black;"><tspan x="8.8515625" y="43.599999999999994">Поиск каналов</tspan></text></g><rect class="djs-hit djs-hit-all" x="0" y="0" width="100" height="80" style="fill: none; stroke-opacity: 0; stroke: white; stroke-width: 15px;"/><rect x="-6" y="-6" width="112" height="92" class="djs-outline" style="fill: none;"/></g></g><g class="djs-group"><g class="djs-element djs-shape" data-element-id="Activity_01c5hrw" style="display: block;" transform="matrix(1 0 0 1 530 640)"><g class="djs-visual"><rect x="0" y="0" width="100" height="80" rx="10" ry="10" style="stroke: black; stroke-width: 2px; fill: white; fill-opacity: 0.95;"/><text lineHeight="1.2" class="djs-label" style="font-family: Arial, sans-serif; font-size: 12px; font-weight: normal; fill: black;"><tspan x="20.578125" y="36.4">Настройки </tspan><tspan x="28.6875" y="50.8">яркости</tspan></text></g><rect class="djs-hit djs-hit-all" x="0" y="0" width="100" height="80" style="fill: none; stroke-opacity: 0; stroke: white; stroke-width: 15px;"/><rect x="-6" y="-6" width="112" height="92" class="djs-outline" style="fill: none;"/></g></g><g class="djs-group"><g class="djs-element djs-shape" data-element-id="Activity_0qhk1of" style="display: block;" transform="matrix(1 0 0 1 530 750)"><g class="djs-visual"><rect x="0" y="0" width="100" height="80" rx="10" ry="10" style="stroke: black; stroke-width: 2px; fill: white; fill-opacity: 0.95;"/><text lineHeight="1.2" class="djs-label" style="font-family: Arial, sans-serif; font-size: 12px; font-weight: normal; fill: black;"><tspan x="20.578125" y="36.4">Настройки </tspan><tspan x="9.734375" y="50.8">контрастности</tspan></text></g><rect class="djs-hit djs-hit-all" x="0" y="0" width="100" height="80" style="fill: none; stroke-opacity: 0; stroke: white; stroke-width: 15px;"/><rect x="-6" y="-6" width="112" height="92" class="djs-outline" style="fill: none;"/></g></g><g class="djs-group"><g class="djs-element djs-shape" data-element-id="Activity_14ryie8" style="display: block;" transform="matrix(1 0 0 1 690 230)"><g class="djs-visual"><rect x="0" y="0" width="100" height="80" rx="10" ry="10" style="stroke: black; stroke-width: 2px; fill: white; fill-opacity: 0.95;"/><text lineHeight="1.2" class="djs-label" style="font-family: Arial, sans-serif; font-size: 12px; font-weight: normal; fill: black;"><tspan x="22.328125" y="36.4">Просмотр </tspan><tspan x="18.25" y="50.8">телевизора</tspan></text></g><rect class="djs-hit djs-hit-all" x="0" y="0" width="100" height="80" style="fill: none; stroke-opacity: 0; stroke: white; stroke-width: 15px;"/><rect x="-6" y="-6" width="112" height="92" class="djs-outline" style="fill: none;"/></g></g><g class="djs-group"><g class="djs-element djs-shape" data-element-id="Event_1w65iho" style="display: block;" transform="matrix(1 0 0 1 722 102)"><g class="djs-visual"><circle cx="18" cy="18" r="18" style="stroke: black; stroke-width: 4px; fill: white; fill-opacity: 0.95;"/></g><rect class="djs-hit djs-hit-all" x="0" y="0" width="36" height="36" style="fill: none; stroke-opacity: 0; stroke: white; stroke-width: 15px;"/><rect x="-6" y="-6" width="48" height="48" class="djs-outline" style="fill: none;"/></g></g></g></g><g class="djs-group"><g class="djs-element djs-shape" data-element-id="StartEvent_1y45yut_label" style="display: block;" transform="matrix(1 0 0 1 251 74.5)"><g class="djs-visual"><text lineHeight="1.2" class="djs-label" style="font-family: Arial, sans-serif; font-size: 11px; font-weight: normal; fill: black;"><tspan x="0.3828125" y="9.899999999999999">Включение </tspan><tspan x="0" y="23.099999999999998">телевизора</tspan></text></g><rect class="djs-hit djs-hit-all" x="0" y="0" width="58" height="27" style="fill: none; stroke-opacity: 0; stroke: white; stroke-width: 15px;"/><rect x="-6" y="-6" width="70" height="39" class="djs-outline" style="fill: none;"/></g></g><g class="djs-group"><g class="djs-element djs-shape" data-element-id="Event_1w65iho_label" style="display: block;" transform="matrix(1 0 0 1 707 72)"><g class="djs-visual"><text lineHeight="1.2" class="djs-label" style="font-family: Arial, sans-serif; font-size: 11px; font-weight: normal; fill: black;"><tspan x="0" y="9.899999999999999">Выключение </tspan><tspan x="3.5703125" y="23.099999999999998">телевизора</tspan></text></g><rect class="djs-hit djs-hit-all" x="0" y="0" width="66" height="27" style="fill: none; stroke-opacity: 0; stroke: white; stroke-width: 15px;"/><rect x="-6" y="-6" width="78" height="39" class="djs-outline" style="fill: none;"/></g></g></svg>